<mxfile host="app.diagrams.net" agent="Mozilla/5.0 (Windows NT 10.0; Win64; x64) AppleWebKit/537.36 (KHTML, like Gecko) Chrome/139.0.0.0 Safari/537.36" version="28.1.1">
  <diagram name="PÃ¡gina-1" id="nYF4nsvOZ8nPQ5O66yB5">
    <mxGraphModel dx="1042" dy="561" grid="1" gridSize="10" guides="1" tooltips="1" connect="1" arrows="1" fold="1" page="1" pageScale="1" pageWidth="827" pageHeight="1169" math="0" shadow="0">
      <root>
        <mxCell id="0" />
        <mxCell id="1" parent="0" />
        <mxCell id="CdSq17A1GMh9k4FNh4nz-3" style="edgeStyle=orthogonalEdgeStyle;rounded=0;orthogonalLoop=1;jettySize=auto;html=1;" edge="1" parent="1" source="CdSq17A1GMh9k4FNh4nz-1" target="CdSq17A1GMh9k4FNh4nz-2">
          <mxGeometry relative="1" as="geometry" />
        </mxCell>
        <mxCell id="CdSq17A1GMh9k4FNh4nz-1" value="Inicio" style="ellipse;whiteSpace=wrap;html=1;aspect=fixed;" vertex="1" parent="1">
          <mxGeometry x="134.5" y="60" width="90" height="90" as="geometry" />
        </mxCell>
        <mxCell id="CdSq17A1GMh9k4FNh4nz-6" style="edgeStyle=orthogonalEdgeStyle;rounded=0;orthogonalLoop=1;jettySize=auto;html=1;" edge="1" parent="1" source="CdSq17A1GMh9k4FNh4nz-2" target="CdSq17A1GMh9k4FNh4nz-4">
          <mxGeometry relative="1" as="geometry" />
        </mxCell>
        <mxCell id="CdSq17A1GMh9k4FNh4nz-2" value="&lt;div&gt;&lt;font style=&quot;font-size: 10px;&quot;&gt;Definir tipo_cambio_eur_a_mxn = 21,77&lt;/font&gt;&lt;/div&gt;&lt;div&gt;&lt;font style=&quot;font-size: 11px;&quot;&gt;&amp;nbsp; &amp;nbsp; &amp;nbsp;Definir tipo_cambio_usd_a_mxn = 18,66&lt;/font&gt;&lt;/div&gt;&lt;div&gt;&lt;br&gt;&lt;/div&gt;" style="rounded=0;whiteSpace=wrap;html=1;fillColor=#bac8d3;strokeColor=#23445d;" vertex="1" parent="1">
          <mxGeometry x="30" y="180" width="299" height="80" as="geometry" />
        </mxCell>
        <mxCell id="CdSq17A1GMh9k4FNh4nz-10" style="edgeStyle=orthogonalEdgeStyle;rounded=0;orthogonalLoop=1;jettySize=auto;html=1;entryX=0.5;entryY=0;entryDx=0;entryDy=0;" edge="1" parent="1" source="CdSq17A1GMh9k4FNh4nz-4" target="CdSq17A1GMh9k4FNh4nz-9">
          <mxGeometry relative="1" as="geometry" />
        </mxCell>
        <mxCell id="CdSq17A1GMh9k4FNh4nz-4" value="&lt;div&gt;&lt;font style=&quot;font-size: 11px;&quot;&gt;Mostrar mensaje:&quot;Por favor&amp;nbsp;&lt;/font&gt;&lt;/div&gt;&lt;div&gt;&lt;font style=&quot;font-size: 11px;&quot;&gt;ingrese el tipo de moneda&amp;nbsp;&lt;/font&gt;&lt;/div&gt;&lt;div&gt;&lt;font style=&quot;font-size: 11px;&quot;&gt;para conversion (EUR/USD): &quot;&lt;/font&gt;&lt;/div&gt;&lt;div&gt;&lt;br&gt;&lt;/div&gt;" style="shape=parallelogram;perimeter=parallelogramPerimeter;whiteSpace=wrap;html=1;fixedSize=1;fillColor=#fad7ac;strokeColor=#b46504;" vertex="1" parent="1">
          <mxGeometry x="38.75" y="300" width="281.5" height="100" as="geometry" />
        </mxCell>
        <mxCell id="CdSq17A1GMh9k4FNh4nz-16" style="edgeStyle=orthogonalEdgeStyle;rounded=0;orthogonalLoop=1;jettySize=auto;html=1;entryX=0.5;entryY=0;entryDx=0;entryDy=0;" edge="1" parent="1" source="CdSq17A1GMh9k4FNh4nz-9" target="CdSq17A1GMh9k4FNh4nz-11">
          <mxGeometry relative="1" as="geometry" />
        </mxCell>
        <mxCell id="CdSq17A1GMh9k4FNh4nz-9" value="&lt;div&gt;&lt;div&gt;&lt;font style=&quot;font-size: 11px;&quot;&gt;Mostrar mensaje:&lt;/font&gt;&lt;/div&gt;&lt;div&gt;&lt;font style=&quot;font-size: 11px;&quot;&gt;&amp;nbsp;&quot;Ingrese el monto a conversion: &quot;&lt;/font&gt;&lt;/div&gt;&lt;/div&gt;&lt;div&gt;&lt;br&gt;&lt;/div&gt;" style="shape=parallelogram;perimeter=parallelogramPerimeter;whiteSpace=wrap;html=1;fixedSize=1;fillColor=#fad7ac;strokeColor=#b46504;" vertex="1" parent="1">
          <mxGeometry x="39" y="410" width="281.25" height="90" as="geometry" />
        </mxCell>
        <mxCell id="CdSq17A1GMh9k4FNh4nz-13" style="edgeStyle=orthogonalEdgeStyle;rounded=0;orthogonalLoop=1;jettySize=auto;html=1;" edge="1" parent="1" source="CdSq17A1GMh9k4FNh4nz-11" target="CdSq17A1GMh9k4FNh4nz-14">
          <mxGeometry relative="1" as="geometry">
            <mxPoint x="335.5" y="615" as="targetPoint" />
          </mxGeometry>
        </mxCell>
        <mxCell id="CdSq17A1GMh9k4FNh4nz-34" style="edgeStyle=orthogonalEdgeStyle;rounded=0;orthogonalLoop=1;jettySize=auto;html=1;" edge="1" parent="1" source="CdSq17A1GMh9k4FNh4nz-11" target="CdSq17A1GMh9k4FNh4nz-28">
          <mxGeometry relative="1" as="geometry" />
        </mxCell>
        <mxCell id="CdSq17A1GMh9k4FNh4nz-11" value="&lt;div&gt;&lt;font style=&quot;font-size: 11px;&quot;&gt;&lt;br&gt;&lt;/font&gt;&lt;/div&gt;&lt;div&gt;&lt;font style=&quot;font-size: 11px;&quot;&gt;Tipo_conversion&amp;nbsp; &quot;EUR&quot;&lt;/font&gt;&lt;/div&gt;" style="rhombus;whiteSpace=wrap;html=1;fillColor=#b0e3e6;strokeColor=#0e8088;" vertex="1" parent="1">
          <mxGeometry x="89.38" y="528.13" width="180" height="140" as="geometry" />
        </mxCell>
        <mxCell id="CdSq17A1GMh9k4FNh4nz-18" style="edgeStyle=orthogonalEdgeStyle;rounded=0;orthogonalLoop=1;jettySize=auto;html=1;entryX=0;entryY=0.5;entryDx=0;entryDy=0;" edge="1" parent="1" source="CdSq17A1GMh9k4FNh4nz-14" target="CdSq17A1GMh9k4FNh4nz-17">
          <mxGeometry relative="1" as="geometry" />
        </mxCell>
        <mxCell id="CdSq17A1GMh9k4FNh4nz-14" value="&lt;font style=&quot;font-size: 11px;&quot;&gt;Calcular resultado = monto_a_convertir * Definir tipo_cambio_eur_a_mxn&lt;/font&gt;" style="rounded=0;whiteSpace=wrap;html=1;fillColor=#bac8d3;strokeColor=#23445d;" vertex="1" parent="1">
          <mxGeometry x="329" y="556.57" width="140" height="83.12" as="geometry" />
        </mxCell>
        <mxCell id="CdSq17A1GMh9k4FNh4nz-41" style="edgeStyle=orthogonalEdgeStyle;rounded=0;orthogonalLoop=1;jettySize=auto;html=1;" edge="1" parent="1" source="CdSq17A1GMh9k4FNh4nz-17">
          <mxGeometry relative="1" as="geometry">
            <mxPoint x="610" y="1040" as="targetPoint" />
            <Array as="points">
              <mxPoint x="790" y="598" />
              <mxPoint x="790" y="1040" />
            </Array>
          </mxGeometry>
        </mxCell>
        <mxCell id="CdSq17A1GMh9k4FNh4nz-17" value="&lt;font style=&quot;font-size: 11px;&quot;&gt;Mostrar mensaje: &quot;El resultado de la conversion de EUR a MXN es:&quot;, resultado&lt;/font&gt;" style="rounded=0;whiteSpace=wrap;html=1;fillColor=#bac8d3;strokeColor=#23445d;" vertex="1" parent="1">
          <mxGeometry x="500" y="545.01" width="200" height="106.25" as="geometry" />
        </mxCell>
        <mxCell id="CdSq17A1GMh9k4FNh4nz-19" value="Si" style="text;html=1;align=center;verticalAlign=middle;resizable=0;points=[];autosize=1;strokeColor=none;fillColor=none;" vertex="1" parent="1">
          <mxGeometry x="280" y="570" width="30" height="30" as="geometry" />
        </mxCell>
        <mxCell id="CdSq17A1GMh9k4FNh4nz-27" style="edgeStyle=orthogonalEdgeStyle;rounded=0;orthogonalLoop=1;jettySize=auto;html=1;" edge="1" parent="1" source="CdSq17A1GMh9k4FNh4nz-28" target="CdSq17A1GMh9k4FNh4nz-30">
          <mxGeometry relative="1" as="geometry">
            <mxPoint x="335.5" y="786.87" as="targetPoint" />
          </mxGeometry>
        </mxCell>
        <mxCell id="CdSq17A1GMh9k4FNh4nz-35" style="edgeStyle=orthogonalEdgeStyle;rounded=0;orthogonalLoop=1;jettySize=auto;html=1;" edge="1" parent="1" source="CdSq17A1GMh9k4FNh4nz-28">
          <mxGeometry relative="1" as="geometry">
            <mxPoint x="179.58333333333326" y="880" as="targetPoint" />
          </mxGeometry>
        </mxCell>
        <mxCell id="CdSq17A1GMh9k4FNh4nz-28" value="&lt;div&gt;&lt;font style=&quot;font-size: 11px;&quot;&gt;&lt;br&gt;&lt;/font&gt;&lt;/div&gt;&lt;div&gt;&lt;font style=&quot;font-size: 11px;&quot;&gt;Tipo_conversion &quot;USD&quot;&lt;/font&gt;&lt;/div&gt;" style="rhombus;whiteSpace=wrap;html=1;fillColor=#b0e3e6;strokeColor=#0e8088;" vertex="1" parent="1">
          <mxGeometry x="89.38" y="700" width="180" height="140" as="geometry" />
        </mxCell>
        <mxCell id="CdSq17A1GMh9k4FNh4nz-29" style="edgeStyle=orthogonalEdgeStyle;rounded=0;orthogonalLoop=1;jettySize=auto;html=1;entryX=0;entryY=0.5;entryDx=0;entryDy=0;" edge="1" parent="1" source="CdSq17A1GMh9k4FNh4nz-30" target="CdSq17A1GMh9k4FNh4nz-31">
          <mxGeometry relative="1" as="geometry" />
        </mxCell>
        <mxCell id="CdSq17A1GMh9k4FNh4nz-30" value="&lt;font style=&quot;font-size: 11px;&quot;&gt;Calcular resultado = monto_a_convertir * Definir tipo_cambio_usd_a_mxn&lt;/font&gt;" style="rounded=0;whiteSpace=wrap;html=1;fillColor=#bac8d3;strokeColor=#23445d;" vertex="1" parent="1">
          <mxGeometry x="329" y="728.44" width="140" height="83.12" as="geometry" />
        </mxCell>
        <mxCell id="CdSq17A1GMh9k4FNh4nz-40" style="edgeStyle=orthogonalEdgeStyle;rounded=0;orthogonalLoop=1;jettySize=auto;html=1;entryX=1;entryY=0.5;entryDx=0;entryDy=0;" edge="1" parent="1" source="CdSq17A1GMh9k4FNh4nz-31" target="CdSq17A1GMh9k4FNh4nz-38">
          <mxGeometry relative="1" as="geometry">
            <Array as="points">
              <mxPoint x="610" y="1040" />
            </Array>
          </mxGeometry>
        </mxCell>
        <mxCell id="CdSq17A1GMh9k4FNh4nz-31" value="&lt;font style=&quot;font-size: 11px;&quot;&gt;Mostrar mensaje: &quot;El resultado de la conversion de USD a MXN es:&quot;, resultado&lt;/font&gt;" style="rounded=0;whiteSpace=wrap;html=1;fillColor=#bac8d3;strokeColor=#23445d;" vertex="1" parent="1">
          <mxGeometry x="500" y="716.88" width="200" height="106.25" as="geometry" />
        </mxCell>
        <mxCell id="CdSq17A1GMh9k4FNh4nz-32" value="Si" style="text;html=1;align=center;verticalAlign=middle;resizable=0;points=[];autosize=1;strokeColor=none;fillColor=none;" vertex="1" parent="1">
          <mxGeometry x="280" y="741.87" width="30" height="30" as="geometry" />
        </mxCell>
        <mxCell id="CdSq17A1GMh9k4FNh4nz-36" value="No" style="text;html=1;align=center;verticalAlign=middle;resizable=0;points=[];autosize=1;strokeColor=none;fillColor=none;" vertex="1" parent="1">
          <mxGeometry x="170" y="840" width="40" height="30" as="geometry" />
        </mxCell>
        <mxCell id="CdSq17A1GMh9k4FNh4nz-39" style="edgeStyle=orthogonalEdgeStyle;rounded=0;orthogonalLoop=1;jettySize=auto;html=1;" edge="1" parent="1" source="CdSq17A1GMh9k4FNh4nz-37" target="CdSq17A1GMh9k4FNh4nz-38">
          <mxGeometry relative="1" as="geometry" />
        </mxCell>
        <mxCell id="CdSq17A1GMh9k4FNh4nz-37" value="&lt;span style=&quot;font-size: 11px;&quot;&gt;Mostrar: &quot;Tipo de conversion no valido&quot;&lt;/span&gt;" style="shape=parallelogram;perimeter=parallelogramPerimeter;whiteSpace=wrap;html=1;fixedSize=1;fillColor=#fad7ac;strokeColor=#b46504;" vertex="1" parent="1">
          <mxGeometry x="86.4" y="880" width="185.94" height="90" as="geometry" />
        </mxCell>
        <mxCell id="CdSq17A1GMh9k4FNh4nz-38" value="Fin" style="ellipse;whiteSpace=wrap;html=1;aspect=fixed;" vertex="1" parent="1">
          <mxGeometry x="139.37" y="1000" width="80" height="80" as="geometry" />
        </mxCell>
      </root>
    </mxGraphModel>
  </diagram>
</mxfile>
